<?xml version="1.0" encoding="utf-8"?>
<!-- Generator: Adobe Illustrator 17.1.0, SVG Export Plug-In . SVG Version: 6.00 Build 0)  -->
<!DOCTYPE svg PUBLIC "-//W3C//DTD SVG 1.1//EN" "http://www.w3.org/Graphics/SVG/1.1/DTD/svg11.dtd">
<svg version="1.1" xmlns="http://www.w3.org/2000/svg" xmlns:xlink="http://www.w3.org/1999/xlink" x="0px" y="0px"
	 viewBox="50.5 50 412 412" enable-background="new 50.5 50 412 412" xml:space="preserve">
<g id="Layer_2">
	<rect x="86" y="84" fill="#FFFFFF" width="334" height="332"/>
</g>
<g id="Layer_1">
	<path id="linkedin-square-icon" fill="#FF4800" d="M50.5,50v412h412V50H50.5z M181.5,393H125V210.3h56.5V393z M153,186.4
		c-18.5,0-33.4-15.1-33.4-33.7s15-33.7,33.4-33.7c18.5,0,33.4,15.1,33.4,33.7C186.4,171.3,171.4,186.4,153,186.4z M393.4,393h-56.3
		c0,0,0-69.6,0-95.9c0-26.3-10-41-30.8-41c-22.6,0-34.5,15.3-34.5,41c0,28.1,0,95.9,0,95.9h-54.2V210.3h54.2v24.6
		c0,0,16.3-30.2,55-30.2c38.7,0,66.5,23.6,66.5,72.6C393.4,326.3,393.4,393,393.4,393z"/>
</g>
</svg>
